<svg width="24" height="24" viewBox="0 0 24 24" fill="none" xmlns="http://www.w3.org/2000/svg">
<path fill-rule="evenodd" clip-rule="evenodd" d="M8.75 5.5C7.50736 5.5 6.5 6.50736 6.5 7.75C6.5 8.99264 7.50736 10 8.75 10C9.55374 10 10.2598 9.57909 10.6587 8.94211C10.8749 8.59694 11 8.18922 11 7.75C11 7.31078 10.8749 6.90306 10.6587 6.55789C10.2598 5.92091 9.55374 5.5 8.75 5.5ZM3.75 8.5H5.07501C5.42247 10.2117 6.93578 11.5 8.75 11.5C10.0918 11.5 11.2683 10.7948 11.93 9.73831C12.1647 9.36351 12.335 8.94411 12.4256 8.49635C12.4501 8.49876 12.4749 8.5 12.5 8.5H20C20.4142 8.5 20.75 8.16421 20.75 7.75C20.75 7.33579 20.4142 7 20 7H12.5C12.4749 7 12.4501 7.00124 12.4256 7.00365C12.335 6.55589 12.1647 6.13649 11.93 5.76169C11.2683 4.70523 10.0918 4 8.75 4C6.93578 4 5.42247 5.28832 5.07501 7H3.75C3.33579 7 3 7.33579 3 7.75C3 8.16421 3.33579 8.5 3.75 8.5ZM20 14.5C20.4142 14.5 20.75 14.8358 20.75 15.25C20.75 15.6642 20.4142 16 20 16H18.675C18.3275 17.7117 16.8142 19 15 19C13.6582 19 12.4817 18.2948 11.82 17.2383C11.5853 16.8635 11.415 16.4441 11.3244 15.9964C11.2999 15.9988 11.2751 16 11.25 16H3.75C3.33579 16 3 15.6642 3 15.25C3 14.8358 3.33579 14.5 3.75 14.5H11.25C11.2751 14.5 11.2999 14.5012 11.3244 14.5036C11.415 14.0559 11.5853 13.6365 11.82 13.2617C12.4817 12.2052 13.6582 11.5 15 11.5C16.8142 11.5 18.3275 12.7883 18.675 14.5H20ZM17.25 15.25C17.25 14.0074 16.2426 13 15 13C14.1963 13 13.4902 13.4209 13.0913 14.0579C12.8751 14.4031 12.75 14.8108 12.75 15.25C12.75 15.6892 12.8751 16.0969 13.0913 16.4421C13.4902 17.0791 14.1963 17.5 15 17.5C16.2426 17.5 17.25 16.4926 17.25 15.25Z" fill="white"/>
</svg>
