<svg width="31" height="22" viewBox="0 0 31 22" fill="none" xmlns="http://www.w3.org/2000/svg">
<path d="M8.16634 21.6673C6.14412 21.6673 4.41634 20.9673 2.98301 19.5673C1.54967 18.1673 0.833008 16.4562 0.833008 14.434C0.833008 12.7007 1.35523 11.1562 2.39967 9.80065C3.44412 8.4451 4.81079 7.57843 6.49967 7.20065C7.05523 5.15621 8.16634 3.50065 9.83301 2.23398C11.4997 0.967318 13.3886 0.333984 15.4997 0.333984C18.0997 0.333984 20.3052 1.23954 22.1163 3.05065C23.9275 4.86176 24.833 7.06732 24.833 9.66732C26.3663 9.8451 27.6386 10.5062 28.6497 11.6507C29.6608 12.7951 30.1663 14.134 30.1663 15.6673C30.1663 17.334 29.583 18.7507 28.4163 19.9173C27.2497 21.084 25.833 21.6673 24.1663 21.6673H16.833C16.0997 21.6673 15.4719 21.4062 14.9497 20.884C14.4275 20.3618 14.1663 19.734 14.1663 19.0007V12.134L12.033 14.2007L10.1663 12.334L15.4997 7.00065L20.833 12.334L18.9663 14.2007L16.833 12.134V19.0007H24.1663C25.0997 19.0007 25.8886 18.6784 26.533 18.034C27.1775 17.3895 27.4997 16.6007 27.4997 15.6673C27.4997 14.734 27.1775 13.9451 26.533 13.3007C25.8886 12.6562 25.0997 12.334 24.1663 12.334H22.1663V9.66732C22.1663 7.82287 21.5163 6.25065 20.2163 4.95065C18.9163 3.65065 17.3441 3.00065 15.4997 3.00065C13.6552 3.00065 12.083 3.65065 10.783 4.95065C9.48301 6.25065 8.83301 7.82287 8.83301 9.66732H8.16634C6.87745 9.66732 5.77745 10.1229 4.86634 11.034C3.95523 11.9451 3.49967 13.0451 3.49967 14.334C3.49967 15.6229 3.95523 16.7229 4.86634 17.634C5.77745 18.5451 6.87745 19.0007 8.16634 19.0007H11.4997V21.6673H8.16634Z" fill="#3E4095"/>
</svg>
